General
Complete name                    : Fifty Dead Men Walking 2008.mkv
Format                           : Matroska
File size                        : 1.25 GiB
Duration                         : 1h 57mn
Overall bit rate                 : 1 523 Kbps
Writing application              : HandBrake svn3482
Writing library                  : libmkv 0.6.4.1

Video
Format                           : AVC
Duration                         : 1h 57mn
Bit rate                         : 1 044 Kbps
Width                            : 720 pixels
Height                           : 496 pixels
Display aspect ratio             : 2.063
Stream size                      : 877 MiB (69%)
Writing library                  : x264 core 104


Audio

Format                           : AC-3
Duration                         : 1h 57mn
Bit rate                         : 448 Kbps
Channel(s)                       : 6 channels
Channel positions                : Front: L C R, Side: L R, LFE
Sampling rate                    : 48.0 KHz
Stream size                      : 376 MiB (29%)
Language                         : English

Text #1
Language                         : English

Text #2
Language                         : Danish

Text #3
Language                         : Finnish

Text #4
Language                         : Norwegian

Text #5
Language                         : Swedish


Menu
00:00:00.000                     : Chapter  1
00:04:59.960                     : Chapter  2


